<?xml version="1.0" standalone="no"?><!DOCTYPE svg PUBLIC "-//W3C//DTD SVG 1.1//EN" "http://www.w3.org/Graphics/SVG/1.1/DTD/svg11.dtd"><svg t="1741189623587" class="icon" viewBox="0 0 1024 1024" version="1.1" xmlns="http://www.w3.org/2000/svg" p-id="1509" xmlns:xlink="http://www.w3.org/1999/xlink" width="200" height="200"><path d="M803.797 100.996l120.26 97.05S714.712 484.762 704.643 497.903a121.398 121.398 0 0 1-25.77 25.03c-20.31 13.995-85.56 46.194-105.072 51.427-19.91 5.348-26.794-2.162-26.396-23.494 0.569-22.585 12.743-96.653 17.35-112.07 3.528-11.832 7.453-21.048 15.986-33.279 14.962-21.333 223.057-304.52 223.057-304.52z m36.977-50.118c7.965-10.126 20.764-26.453 28.103-34.701 18.488-20.878 45.965-17.522 61.78-11.89 17.066 6.03 43.064 27.761 55.977 50.573 7.85 13.938 15.474 37.319 0.399 58.196-15.019 20.935-25.941 34.816-25.941 34.816L840.774 50.878zM743.382 0.02c15.474 0 27.99 12.743 27.99 28.444s-12.516 28.444-27.99 28.444H112.27a28.216 28.216 0 0 0-27.99 28.444v853.316c0 15.701 12.516 28.444 27.99 28.444h799.159a28.216 28.216 0 0 0 27.989-28.444V312.903c0-15.758 12.515-28.444 27.988-28.444s27.99 12.686 27.99 28.444v625.765c0 47.103-37.604 85.332-83.967 85.332h-799.16a84.649 84.649 0 0 1-83.966-85.332V85.352C28.303 38.25 65.906 0.02 112.27 0.02h631.112z m-520.466 350.6a38.4 38.4 0 0 1 29.866-62.577h232.899a32.028 32.028 0 1 1 0 63.999H306.428l181.927 224.422-181.927 224.422h465.569a32.028 32.028 0 0 1 0 63.999H252.782a38.4 38.4 0 0 1-29.866-62.577l183.065-225.844L222.916 350.62z" fill="#29A1FB" p-id="1510"></path></svg>